<svg xmlns="http://www.w3.org/2000/svg">
<circle cx="314.018097" cy="225.954391" r="2" stroke="brown" stroke-width="0" fill="brown" />
<line x1="323.333130" y1="267.118622" x2="266.935455" y2="283.970978" stroke="red" stroke-width="1" />
<line x1="266.935455" y1="283.970978" x2="264.188995" y2="281.028717" stroke="red" stroke-width="1" />
<line x1="264.188995" y1="281.028717" x2="255.257370" y2="234.998428" stroke="red" stroke-width="1" />
<line x1="255.257370" y1="234.998428" x2="342.047607" y2="177.832321" stroke="red" stroke-width="1" />
<line x1="342.047607" y1="177.832321" x2="362.463348" y2="181.911209" stroke="red" stroke-width="1" />
<line x1="362.463348" y1="181.911209" x2="360.107788" y2="213.244781" stroke="red" stroke-width="1" />
<line x1="360.107788" y1="213.244781" x2="323.333130" y2="267.118622" stroke="red" stroke-width="1" />
<circle cx="314.018097" cy="225.954391" r="24.769579" stroke="blue" stroke-width="1" fill="yellow" fill-opacity="0.4" />
<circle cx="539.784302" cy="490.861603" r="2" stroke="brown" stroke-width="0" fill="brown" />
<line x1="546.488892" y1="516.843689" x2="503.156769" y2="487.881165" stroke="red" stroke-width="1" />
<line x1="503.156769" y1="487.881165" x2="522.195618" y2="459.568634" stroke="red" stroke-width="1" />
<line x1="522.195618" y1="459.568634" x2="551.640808" y2="462.609222" stroke="red" stroke-width="1" />
<line x1="551.640808" y1="462.609222" x2="546.488892" y2="516.843689" stroke="red" stroke-width="1" />
<circle cx="539.784302" cy="490.861603" r="9.131599" stroke="blue" stroke-width="1" fill="yellow" fill-opacity="0.4" />
<circle cx="399.198669" cy="558.553345" r="2" stroke="brown" stroke-width="0" fill="brown" />
<line x1="408.135803" y1="531.322632" x2="375.357208" y2="700.000000" stroke="red" stroke-width="1" />
<line x1="375.357208" y1="700.000000" x2="371.464783" y2="700.000000" stroke="red" stroke-width="1" />
<line x1="371.464783" y1="700.000000" x2="341.995850" y2="547.769897" stroke="red" stroke-width="1" />
<line x1="341.995850" y1="547.769897" x2="344.699951" y2="527.633484" stroke="red" stroke-width="1" />
<line x1="344.699951" y1="527.633484" x2="382.006531" y2="500.793304" stroke="red" stroke-width="1" />
<line x1="382.006531" y1="500.793304" x2="408.135803" y2="531.322632" stroke="red" stroke-width="1" />
<circle cx="399.198669" cy="558.553345" r="3.578496" stroke="blue" stroke-width="1" fill="yellow" fill-opacity="0.4" />
<circle cx="486.579651" cy="455.083984" r="2" stroke="brown" stroke-width="0" fill="brown" />
<line x1="503.156769" y1="487.881165" x2="480.214111" y2="499.558350" stroke="red" stroke-width="1" />
<line x1="480.214111" y1="499.558350" x2="471.602814" y2="497.966888" stroke="red" stroke-width="1" />
<line x1="471.602814" y1="497.966888" x2="425.159210" y2="465.436310" stroke="red" stroke-width="1" />
<line x1="425.159210" y1="465.436310" x2="426.812897" y2="457.855225" stroke="red" stroke-width="1" />
<line x1="426.812897" y1="457.855225" x2="501.536469" y2="435.605682" stroke="red" stroke-width="1" />
<line x1="501.536469" y1="435.605682" x2="513.508911" y2="436.756592" stroke="red" stroke-width="1" />
<line x1="513.508911" y1="436.756592" x2="522.195618" y2="459.568634" stroke="red" stroke-width="1" />
<line x1="522.195618" y1="459.568634" x2="503.156769" y2="487.881165" stroke="red" stroke-width="1" />
<circle cx="486.579651" cy="455.083984" r="14.399985" stroke="blue" stroke-width="1" fill="yellow" fill-opacity="0.4" />
<circle cx="338.129486" cy="306.644958" r="2" stroke="brown" stroke-width="0" fill="brown" />
<line x1="352.038513" y1="363.604858" x2="268.450806" y2="293.843353" stroke="red" stroke-width="1" />
<line x1="268.450806" y1="293.843353" x2="266.935455" y2="283.970978" stroke="red" stroke-width="1" />
<line x1="266.935455" y1="283.970978" x2="323.333130" y2="267.118622" stroke="red" stroke-width="1" />
<line x1="323.333130" y1="267.118622" x2="339.550110" y2="276.645081" stroke="red" stroke-width="1" />
<line x1="339.550110" y1="276.645081" x2="352.038513" y2="363.604858" stroke="red" stroke-width="1" />
<circle cx="338.129486" cy="306.644958" r="5.670774" stroke="blue" stroke-width="1" fill="yellow" fill-opacity="0.4" />
<circle cx="118.900208" cy="533.423706" r="2" stroke="brown" stroke-width="0" fill="brown" />
<line x1="179.269394" y1="549.316040" x2="0.000000" y2="581.205444" stroke="red" stroke-width="1" />
<line x1="0.000000" y1="581.205444" x2="0.000000" y2="419.770630" stroke="red" stroke-width="1" />
<line x1="0.000000" y1="419.770630" x2="50.060532" y2="426.778412" stroke="red" stroke-width="1" />
<line x1="50.060532" y1="426.778412" x2="191.723328" y2="494.235779" stroke="red" stroke-width="1" />
<line x1="191.723328" y1="494.235779" x2="179.269394" y2="549.316040" stroke="red" stroke-width="1" />
<circle cx="118.900208" cy="533.423706" r="26.219501" stroke="blue" stroke-width="1" fill="yellow" fill-opacity="0.4" />
<circle cx="160.278107" cy="322.874756" r="2" stroke="brown" stroke-width="0" fill="brown" />
<line x1="168.731308" y1="344.516937" x2="72.158585" y2="274.257080" stroke="red" stroke-width="1" />
<line x1="72.158585" y1="274.257080" x2="154.627625" y2="273.644714" stroke="red" stroke-width="1" />
<line x1="154.627625" y1="273.644714" x2="186.227173" y2="289.425964" stroke="red" stroke-width="1" />
<line x1="186.227173" y1="289.425964" x2="182.760025" y2="328.136993" stroke="red" stroke-width="1" />
<line x1="182.760025" y1="328.136993" x2="168.731308" y2="344.516937" stroke="red" stroke-width="1" />
<circle cx="160.278107" cy="322.874756" r="12.527539" stroke="blue" stroke-width="1" fill="yellow" fill-opacity="0.4" />
<circle cx="197.378418" cy="248.586945" r="2" stroke="brown" stroke-width="0" fill="brown" />
<line x1="264.188995" y1="281.028717" x2="186.227173" y2="289.425964" stroke="red" stroke-width="1" />
<line x1="186.227173" y1="289.425964" x2="154.627625" y2="273.644714" stroke="red" stroke-width="1" />
<line x1="154.627625" y1="273.644714" x2="205.571274" y2="194.170853" stroke="red" stroke-width="1" />
<line x1="205.571274" y1="194.170853" x2="226.442566" y2="194.754654" stroke="red" stroke-width="1" />
<line x1="226.442566" y1="194.754654" x2="255.257370" y2="234.998428" stroke="red" stroke-width="1" />
<line x1="255.257370" y1="234.998428" x2="264.188995" y2="281.028717" stroke="red" stroke-width="1" />
<circle cx="197.378418" cy="248.586945" r="22.468616" stroke="blue" stroke-width="1" fill="yellow" fill-opacity="0.4" />
<circle cx="145.537933" cy="343.135223" r="2" stroke="brown" stroke-width="0" fill="brown" />
<line x1="164.251740" y1="376.590393" x2="50.060532" y2="426.778412" stroke="red" stroke-width="1" />
<line x1="50.060532" y1="426.778412" x2="0.000000" y2="419.770630" stroke="red" stroke-width="1" />
<line x1="0.000000" y1="419.770630" x2="0.000000" y2="265.748291" stroke="red" stroke-width="1" />
<line x1="0.000000" y1="265.748291" x2="72.158585" y2="274.257080" stroke="red" stroke-width="1" />
<line x1="72.158585" y1="274.257080" x2="168.731308" y2="344.516937" stroke="red" stroke-width="1" />
<line x1="168.731308" y1="344.516937" x2="164.251740" y2="376.590393" stroke="red" stroke-width="1" />
<circle cx="145.537933" cy="343.135223" r="12.527589" stroke="blue" stroke-width="1" fill="yellow" fill-opacity="0.4" />
<circle cx="152.464188" cy="136.626221" r="2" stroke="brown" stroke-width="0" fill="brown" />
<line x1="174.092346" y1="179.020767" x2="82.062943" y2="186.451797" stroke="red" stroke-width="1" />
<line x1="82.062943" y1="186.451797" x2="152.078339" y2="96.458267" stroke="red" stroke-width="1" />
<line x1="152.078339" y1="96.458267" x2="176.915817" y2="129.871429" stroke="red" stroke-width="1" />
<line x1="176.915817" y1="129.871429" x2="174.092346" y2="179.020767" stroke="red" stroke-width="1" />
<circle cx="152.464188" cy="136.626221" r="23.653563" stroke="blue" stroke-width="1" fill="yellow" fill-opacity="0.4" />
<circle cx="286.768219" cy="184.583298" r="2" stroke="brown" stroke-width="0" fill="brown" />
<line x1="342.047607" y1="177.832321" x2="255.257370" y2="234.998428" stroke="red" stroke-width="1" />
<line x1="255.257370" y1="234.998428" x2="226.442566" y2="194.754654" stroke="red" stroke-width="1" />
<line x1="226.442566" y1="194.754654" x2="250.739120" y2="148.348007" stroke="red" stroke-width="1" />
<line x1="250.739120" y1="148.348007" x2="327.128082" y2="166.298126" stroke="red" stroke-width="1" />
<line x1="327.128082" y1="166.298126" x2="342.047607" y2="177.832321" stroke="red" stroke-width="1" />
<circle cx="286.768219" cy="184.583298" r="24.769529" stroke="blue" stroke-width="1" fill="yellow" fill-opacity="0.4" />
<circle cx="545.807739" cy="432.530151" r="2" stroke="brown" stroke-width="0" fill="brown" />
<line x1="551.640808" y1="462.609222" x2="522.195618" y2="459.568634" stroke="red" stroke-width="1" />
<line x1="522.195618" y1="459.568634" x2="513.508911" y2="436.756592" stroke="red" stroke-width="1" />
<line x1="513.508911" y1="436.756592" x2="526.971680" y2="397.395813" stroke="red" stroke-width="1" />
<line x1="526.971680" y1="397.395813" x2="633.237854" y2="446.091095" stroke="red" stroke-width="1" />
<line x1="633.237854" y1="446.091095" x2="551.640808" y2="462.609222" stroke="red" stroke-width="1" />
<circle cx="545.807739" cy="432.530151" r="24.093744" stroke="blue" stroke-width="1" fill="yellow" fill-opacity="0.4" />
<circle cx="159.546448" cy="224.336227" r="2" stroke="brown" stroke-width="0" fill="brown" />
<line x1="205.571274" y1="194.170853" x2="154.627625" y2="273.644714" stroke="red" stroke-width="1" />
<line x1="154.627625" y1="273.644714" x2="72.158585" y2="274.257080" stroke="red" stroke-width="1" />
<line x1="72.158585" y1="274.257080" x2="0.000000" y2="265.748291" stroke="red" stroke-width="1" />
<line x1="0.000000" y1="265.748291" x2="0.000000" y2="218.686050" stroke="red" stroke-width="1" />
<line x1="0.000000" y1="218.686050" x2="82.062943" y2="186.451797" stroke="red" stroke-width="1" />
<line x1="82.062943" y1="186.451797" x2="174.092346" y2="179.020767" stroke="red" stroke-width="1" />
<line x1="174.092346" y1="179.020767" x2="205.571274" y2="194.170853" stroke="red" stroke-width="1" />
<circle cx="159.546448" cy="224.336227" r="22.468616" stroke="blue" stroke-width="1" fill="yellow" fill-opacity="0.4" />
<circle cx="292.949524" cy="579.121216" r="2" stroke="brown" stroke-width="0" fill="brown" />
<line x1="221.638382" y1="700.000000" x2="268.118713" y2="566.166504" stroke="red" stroke-width="1" />
<line x1="268.118713" y1="566.166504" x2="341.995850" y2="547.769897" stroke="red" stroke-width="1" />
<line x1="341.995850" y1="547.769897" x2="371.464783" y2="700.000000" stroke="red" stroke-width="1" />
<line x1="371.464783" y1="700.000000" x2="221.638382" y2="700.000000" stroke="red" stroke-width="1" />
<circle cx="292.949524" cy="579.121216" r="18.570879" stroke="blue" stroke-width="1" fill="yellow" fill-opacity="0.4" />
<circle cx="283.974731" cy="543.080078" r="2" stroke="brown" stroke-width="0" fill="brown" />
<line x1="341.995850" y1="547.769897" x2="268.118713" y2="566.166504" stroke="red" stroke-width="1" />
<line x1="268.118713" y1="566.166504" x2="250.887634" y2="524.325500" stroke="red" stroke-width="1" />
<line x1="250.887634" y1="524.325500" x2="308.157715" y2="515.529663" stroke="red" stroke-width="1" />
<line x1="308.157715" y1="515.529663" x2="326.446228" y2="516.072998" stroke="red" stroke-width="1" />
<line x1="326.446228" y1="516.072998" x2="344.699951" y2="527.633484" stroke="red" stroke-width="1" />
<line x1="344.699951" y1="527.633484" x2="341.995850" y2="547.769897" stroke="red" stroke-width="1" />
<circle cx="283.974731" cy="543.080078" r="18.570938" stroke="blue" stroke-width="1" fill="yellow" fill-opacity="0.4" />
<circle cx="279.748718" cy="462.658173" r="2" stroke="brown" stroke-width="0" fill="brown" />
<line x1="305.932678" y1="468.894257" x2="266.676178" y2="478.578278" stroke="red" stroke-width="1" />
<line x1="266.676178" y1="478.578278" x2="210.765732" y2="473.743347" stroke="red" stroke-width="1" />
<line x1="210.765732" y1="473.743347" x2="237.318344" y2="418.398834" stroke="red" stroke-width="1" />
<line x1="237.318344" y1="418.398834" x2="309.468506" y2="415.004944" stroke="red" stroke-width="1" />
<line x1="309.468506" y1="415.004944" x2="305.932678" y2="468.894257" stroke="red" stroke-width="1" />
<circle cx="279.748718" cy="462.658173" r="12.325814" stroke="blue" stroke-width="1" fill="yellow" fill-opacity="0.4" />
<circle cx="113.048653" cy="105.960739" r="2" stroke="brown" stroke-width="0" fill="brown" />
<line x1="152.078339" y1="96.458267" x2="82.062943" y2="186.451797" stroke="red" stroke-width="1" />
<line x1="82.062943" y1="186.451797" x2="0.000000" y2="218.686050" stroke="red" stroke-width="1" />
<line x1="0.000000" y1="218.686050" x2="0.000000" y2="0.000000" stroke="red" stroke-width="1" />
<line x1="0.000000" y1="0.000000" x2="155.123825" y2="0.000000" stroke="red" stroke-width="1" />
<line x1="155.123825" y1="0.000000" x2="152.078339" y2="96.458267" stroke="red" stroke-width="1" />
<circle cx="113.048653" cy="105.960739" r="24.969765" stroke="blue" stroke-width="1" fill="yellow" fill-opacity="0.4" />
<circle cx="383.905762" cy="274.171173" r="2" stroke="brown" stroke-width="0" fill="brown" />
<line x1="410.764984" y1="339.010773" x2="362.259583" y2="284.708313" stroke="red" stroke-width="1" />
<line x1="362.259583" y1="284.708313" x2="382.524139" y2="256.155579" stroke="red" stroke-width="1" />
<line x1="382.524139" y1="256.155579" x2="444.595367" y2="322.551086" stroke="red" stroke-width="1" />
<line x1="444.595367" y1="322.551086" x2="410.764984" y2="339.010773" stroke="red" stroke-width="1" />
<circle cx="383.905762" cy="274.171173" r="11.293912" stroke="blue" stroke-width="1" fill="yellow" fill-opacity="0.4" />
<circle cx="557.965698" cy="492.588715" r="2" stroke="brown" stroke-width="0" fill="brown" />
<line x1="681.257202" y1="700.000000" x2="546.488892" y2="516.843689" stroke="red" stroke-width="1" />
<line x1="546.488892" y1="516.843689" x2="551.640808" y2="462.609222" stroke="red" stroke-width="1" />
<line x1="551.640808" y1="462.609222" x2="633.237854" y2="446.091095" stroke="red" stroke-width="1" />
<line x1="633.237854" y1="446.091095" x2="700.000000" y2="451.179382" stroke="red" stroke-width="1" />
<line x1="700.000000" y1="451.179382" x2="700.000000" y2="700.000000" stroke="red" stroke-width="1" />
<line x1="700.000000" y1="700.000000" x2="681.257202" y2="700.000000" stroke="red" stroke-width="1" />
<circle cx="557.965698" cy="492.588715" r="9.131645" stroke="blue" stroke-width="1" fill="yellow" fill-opacity="0.4" />
<circle cx="478.360840" cy="427.481628" r="2" stroke="brown" stroke-width="0" fill="brown" />
<line x1="501.536469" y1="435.605682" x2="426.812897" y2="457.855225" stroke="red" stroke-width="1" />
<line x1="426.812897" y1="457.855225" x2="426.769318" y2="456.315582" stroke="red" stroke-width="1" />
<line x1="426.769318" y1="456.315582" x2="468.108276" y2="406.145142" stroke="red" stroke-width="1" />
<line x1="468.108276" y1="406.145142" x2="501.536469" y2="435.605682" stroke="red" stroke-width="1" />
<circle cx="478.360840" cy="427.481628" r="9.228395" stroke="blue" stroke-width="1" fill="yellow" fill-opacity="0.4" />
<circle cx="205.819244" cy="326.953613" r="2" stroke="brown" stroke-width="0" fill="brown" />
<line x1="233.307144" y1="360.367371" x2="182.760025" y2="328.136993" stroke="red" stroke-width="1" />
<line x1="182.760025" y1="328.136993" x2="186.227173" y2="289.425964" stroke="red" stroke-width="1" />
<line x1="186.227173" y1="289.425964" x2="264.188995" y2="281.028717" stroke="red" stroke-width="1" />
<line x1="264.188995" y1="281.028717" x2="266.935455" y2="283.970978" stroke="red" stroke-width="1" />
<line x1="266.935455" y1="283.970978" x2="268.450806" y2="293.843353" stroke="red" stroke-width="1" />
<line x1="268.450806" y1="293.843353" x2="258.682617" y2="319.678833" stroke="red" stroke-width="1" />
<line x1="258.682617" y1="319.678833" x2="233.307144" y2="360.367371" stroke="red" stroke-width="1" />
<circle cx="205.819244" cy="326.953613" r="13.395257" stroke="blue" stroke-width="1" fill="yellow" fill-opacity="0.4" />
<circle cx="190.430832" cy="108.403938" r="2" stroke="brown" stroke-width="0" fill="brown" />
<line x1="247.629333" y1="107.039299" x2="176.915817" y2="129.871429" stroke="red" stroke-width="1" />
<line x1="176.915817" y1="129.871429" x2="152.078339" y2="96.458267" stroke="red" stroke-width="1" />
<line x1="152.078339" y1="96.458267" x2="155.123825" y2="0.000000" stroke="red" stroke-width="1" />
<line x1="155.123825" y1="0.000000" x2="270.815948" y2="0.000000" stroke="red" stroke-width="1" />
<line x1="270.815948" y1="0.000000" x2="247.629333" y2="107.039299" stroke="red" stroke-width="1" />
<circle cx="190.430832" cy="108.403938" r="16.276333" stroke="blue" stroke-width="1" fill="yellow" fill-opacity="0.4" />
<circle cx="240.603363" cy="560.941406" r="2" stroke="brown" stroke-width="0" fill="brown" />
<line x1="268.118713" y1="566.166504" x2="221.638382" y2="700.000000" stroke="red" stroke-width="1" />
<line x1="221.638382" y1="700.000000" x2="211.558365" y2="700.000000" stroke="red" stroke-width="1" />
<line x1="211.558365" y1="700.000000" x2="179.269394" y2="549.316040" stroke="red" stroke-width="1" />
<line x1="179.269394" y1="549.316040" x2="191.723328" y2="494.235779" stroke="red" stroke-width="1" />
<line x1="191.723328" y1="494.235779" x2="194.898331" y2="492.854553" stroke="red" stroke-width="1" />
<line x1="194.898331" y1="492.854553" x2="250.887634" y2="524.325500" stroke="red" stroke-width="1" />
<line x1="250.887634" y1="524.325500" x2="268.118713" y2="566.166504" stroke="red" stroke-width="1" />
<circle cx="240.603363" cy="560.941406" r="23.452616" stroke="blue" stroke-width="1" fill="yellow" fill-opacity="0.4" />
<circle cx="445.204865" cy="400.162109" r="2" stroke="brown" stroke-width="0" fill="brown" />
<line x1="468.108276" y1="406.145142" x2="426.769318" y2="456.315582" stroke="red" stroke-width="1" />
<line x1="426.769318" y1="456.315582" x2="387.188232" y2="362.765900" stroke="red" stroke-width="1" />
<line x1="387.188232" y1="362.765900" x2="410.764984" y2="339.010773" stroke="red" stroke-width="1" />
<line x1="410.764984" y1="339.010773" x2="444.595367" y2="322.551086" stroke="red" stroke-width="1" />
<line x1="444.595367" y1="322.551086" x2="478.691681" y2="311.749847" stroke="red" stroke-width="1" />
<line x1="478.691681" y1="311.749847" x2="478.706177" y2="311.756561" stroke="red" stroke-width="1" />
<line x1="478.706177" y1="311.756561" x2="487.428833" y2="341.097778" stroke="red" stroke-width="1" />
<line x1="487.428833" y1="341.097778" x2="468.108276" y2="406.145142" stroke="red" stroke-width="1" />
<circle cx="445.204865" cy="400.162109" r="21.480671" stroke="blue" stroke-width="1" fill="yellow" fill-opacity="0.4" />
<circle cx="555.061646" cy="367.503510" r="2" stroke="brown" stroke-width="0" fill="brown" />
<line x1="700.000000" y1="306.965485" x2="526.348938" y2="395.513031" stroke="red" stroke-width="1" />
<line x1="526.348938" y1="395.513031" x2="487.428833" y2="341.097778" stroke="red" stroke-width="1" />
<line x1="487.428833" y1="341.097778" x2="478.706177" y2="311.756561" stroke="red" stroke-width="1" />
<line x1="478.706177" y1="311.756561" x2="603.166138" y2="284.298401" stroke="red" stroke-width="1" />
<line x1="603.166138" y1="284.298401" x2="700.000000" y2="279.737946" stroke="red" stroke-width="1" />
<line x1="700.000000" y1="279.737946" x2="700.000000" y2="306.965485" stroke="red" stroke-width="1" />
<circle cx="555.061646" cy="367.503510" r="11.909509" stroke="blue" stroke-width="1" fill="yellow" fill-opacity="0.4" />
<circle cx="365.062073" cy="260.797363" r="2" stroke="brown" stroke-width="0" fill="brown" />
<line x1="382.524139" y1="256.155579" x2="362.259583" y2="284.708313" stroke="red" stroke-width="1" />
<line x1="362.259583" y1="284.708313" x2="339.550110" y2="276.645081" stroke="red" stroke-width="1" />
<line x1="339.550110" y1="276.645081" x2="323.333130" y2="267.118622" stroke="red" stroke-width="1" />
<line x1="323.333130" y1="267.118622" x2="360.107788" y2="213.244781" stroke="red" stroke-width="1" />
<line x1="360.107788" y1="213.244781" x2="381.765717" y2="243.091125" stroke="red" stroke-width="1" />
<line x1="381.765717" y1="243.091125" x2="382.524139" y2="256.155579" stroke="red" stroke-width="1" />
<circle cx="365.062073" cy="260.797363" r="11.553577" stroke="blue" stroke-width="1" fill="yellow" fill-opacity="0.4" />
<circle cx="332.706970" cy="466.132904" r="2" stroke="brown" stroke-width="0" fill="brown" />
<line x1="344.699951" y1="527.633484" x2="326.446228" y2="516.072998" stroke="red" stroke-width="1" />
<line x1="326.446228" y1="516.072998" x2="305.932678" y2="468.894257" stroke="red" stroke-width="1" />
<line x1="305.932678" y1="468.894257" x2="309.468506" y2="415.004944" stroke="red" stroke-width="1" />
<line x1="309.468506" y1="415.004944" x2="311.825348" y2="413.594971" stroke="red" stroke-width="1" />
<line x1="311.825348" y1="413.594971" x2="320.209412" y2="410.495361" stroke="red" stroke-width="1" />
<line x1="320.209412" y1="410.495361" x2="388.803986" y2="489.152985" stroke="red" stroke-width="1" />
<line x1="388.803986" y1="489.152985" x2="382.006531" y2="500.793304" stroke="red" stroke-width="1" />
<line x1="382.006531" y1="500.793304" x2="344.699951" y2="527.633484" stroke="red" stroke-width="1" />
<circle cx="332.706970" cy="466.132904" r="25.654779" stroke="blue" stroke-width="1" fill="yellow" fill-opacity="0.4" />
<circle cx="299.135834" cy="131.951355" r="2" stroke="brown" stroke-width="0" fill="brown" />
<line x1="327.128082" y1="166.298126" x2="250.739120" y2="148.348007" stroke="red" stroke-width="1" />
<line x1="250.739120" y1="148.348007" x2="247.629333" y2="107.039299" stroke="red" stroke-width="1" />
<line x1="247.629333" y1="107.039299" x2="270.815948" y2="0.000000" stroke="red" stroke-width="1" />
<line x1="270.815948" y1="0.000000" x2="283.513275" y2="0.000000" stroke="red" stroke-width="1" />
<line x1="283.513275" y1="0.000000" x2="327.128082" y2="166.298126" stroke="red" stroke-width="1" />
<circle cx="299.135834" cy="131.951355" r="18.363104" stroke="blue" stroke-width="1" fill="yellow" fill-opacity="0.4" />
<circle cx="349.355835" cy="305.032715" r="2" stroke="brown" stroke-width="0" fill="brown" />
<line x1="352.038513" y1="363.604858" x2="339.550110" y2="276.645081" stroke="red" stroke-width="1" />
<line x1="339.550110" y1="276.645081" x2="362.259583" y2="284.708313" stroke="red" stroke-width="1" />
<line x1="362.259583" y1="284.708313" x2="410.764984" y2="339.010773" stroke="red" stroke-width="1" />
<line x1="410.764984" y1="339.010773" x2="387.188232" y2="362.765900" stroke="red" stroke-width="1" />
<line x1="387.188232" y1="362.765900" x2="356.977692" y2="368.613129" stroke="red" stroke-width="1" />
<line x1="356.977692" y1="368.613129" x2="352.038513" y2="363.604858" stroke="red" stroke-width="1" />
<circle cx="349.355835" cy="305.032715" r="5.670740" stroke="blue" stroke-width="1" fill="yellow" fill-opacity="0.4" />
<circle cx="200.433060" cy="139.381866" r="2" stroke="brown" stroke-width="0" fill="brown" />
<line x1="205.571274" y1="194.170853" x2="174.092346" y2="179.020767" stroke="red" stroke-width="1" />
<line x1="174.092346" y1="179.020767" x2="176.915817" y2="129.871429" stroke="red" stroke-width="1" />
<line x1="176.915817" y1="129.871429" x2="247.629333" y2="107.039299" stroke="red" stroke-width="1" />
<line x1="247.629333" y1="107.039299" x2="250.739120" y2="148.348007" stroke="red" stroke-width="1" />
<line x1="250.739120" y1="148.348007" x2="226.442566" y2="194.754654" stroke="red" stroke-width="1" />
<line x1="226.442566" y1="194.754654" x2="205.571274" y2="194.170853" stroke="red" stroke-width="1" />
<circle cx="200.433060" cy="139.381866" r="16.276333" stroke="blue" stroke-width="1" fill="yellow" fill-opacity="0.4" />
<circle cx="275.406708" cy="370.351929" r="2" stroke="brown" stroke-width="0" fill="brown" />
<line x1="309.468506" y1="415.004944" x2="237.318344" y2="418.398834" stroke="red" stroke-width="1" />
<line x1="237.318344" y1="418.398834" x2="225.650848" y2="391.270111" stroke="red" stroke-width="1" />
<line x1="225.650848" y1="391.270111" x2="233.307144" y2="360.367371" stroke="red" stroke-width="1" />
<line x1="233.307144" y1="360.367371" x2="258.682617" y2="319.678833" stroke="red" stroke-width="1" />
<line x1="258.682617" y1="319.678833" x2="311.825348" y2="413.594971" stroke="red" stroke-width="1" />
<line x1="311.825348" y1="413.594971" x2="309.468506" y2="415.004944" stroke="red" stroke-width="1" />
<circle cx="275.406708" cy="370.351929" r="10.399899" stroke="blue" stroke-width="1" fill="yellow" fill-opacity="0.4" />
<circle cx="373.629517" cy="430.445801" r="2" stroke="brown" stroke-width="0" fill="brown" />
<line x1="388.803986" y1="489.152985" x2="320.209412" y2="410.495361" stroke="red" stroke-width="1" />
<line x1="320.209412" y1="410.495361" x2="356.977692" y2="368.613129" stroke="red" stroke-width="1" />
<line x1="356.977692" y1="368.613129" x2="387.188232" y2="362.765900" stroke="red" stroke-width="1" />
<line x1="387.188232" y1="362.765900" x2="426.769318" y2="456.315582" stroke="red" stroke-width="1" />
<line x1="426.769318" y1="456.315582" x2="426.812897" y2="457.855225" stroke="red" stroke-width="1" />
<line x1="426.812897" y1="457.855225" x2="425.159210" y2="465.436310" stroke="red" stroke-width="1" />
<line x1="425.159210" y1="465.436310" x2="388.803986" y2="489.152985" stroke="red" stroke-width="1" />
<circle cx="373.629517" cy="430.445801" r="27.148769" stroke="blue" stroke-width="1" fill="yellow" fill-opacity="0.4" />
<circle cx="490.564148" cy="413.634857" r="2" stroke="brown" stroke-width="0" fill="brown" />
<line x1="501.536469" y1="435.605682" x2="468.108276" y2="406.145142" stroke="red" stroke-width="1" />
<line x1="468.108276" y1="406.145142" x2="487.428833" y2="341.097778" stroke="red" stroke-width="1" />
<line x1="487.428833" y1="341.097778" x2="526.348938" y2="395.513031" stroke="red" stroke-width="1" />
<line x1="526.348938" y1="395.513031" x2="526.971680" y2="397.395813" stroke="red" stroke-width="1" />
<line x1="526.971680" y1="397.395813" x2="513.508911" y2="436.756592" stroke="red" stroke-width="1" />
<line x1="513.508911" y1="436.756592" x2="501.536469" y2="435.605682" stroke="red" stroke-width="1" />
<circle cx="490.564148" cy="413.634857" r="9.228395" stroke="blue" stroke-width="1" fill="yellow" fill-opacity="0.4" />
<circle cx="406.224274" cy="559.918640" r="2" stroke="brown" stroke-width="0" fill="brown" />
<line x1="375.357208" y1="700.000000" x2="408.135803" y2="531.322632" stroke="red" stroke-width="1" />
<line x1="408.135803" y1="531.322632" x2="440.622803" y2="560.850281" stroke="red" stroke-width="1" />
<line x1="440.622803" y1="560.850281" x2="476.580627" y2="700.000000" stroke="red" stroke-width="1" />
<line x1="476.580627" y1="700.000000" x2="375.357208" y2="700.000000" stroke="red" stroke-width="1" />
<circle cx="406.224274" cy="559.918640" r="3.578542" stroke="blue" stroke-width="1" fill="yellow" fill-opacity="0.4" />
<circle cx="436.419800" cy="526.696777" r="2" stroke="brown" stroke-width="0" fill="brown" />
<line x1="440.622803" y1="560.850281" x2="408.135803" y2="531.322632" stroke="red" stroke-width="1" />
<line x1="408.135803" y1="531.322632" x2="382.006531" y2="500.793304" stroke="red" stroke-width="1" />
<line x1="382.006531" y1="500.793304" x2="388.803986" y2="489.152985" stroke="red" stroke-width="1" />
<line x1="388.803986" y1="489.152985" x2="425.159210" y2="465.436310" stroke="red" stroke-width="1" />
<line x1="425.159210" y1="465.436310" x2="471.602814" y2="497.966888" stroke="red" stroke-width="1" />
<line x1="471.602814" y1="497.966888" x2="440.622803" y2="560.850281" stroke="red" stroke-width="1" />
<circle cx="436.419800" cy="526.696777" r="18.863998" stroke="blue" stroke-width="1" fill="yellow" fill-opacity="0.4" />
<circle cx="400.406067" cy="258.745514" r="2" stroke="brown" stroke-width="0" fill="brown" />
<line x1="444.595367" y1="322.551086" x2="382.524139" y2="256.155579" stroke="red" stroke-width="1" />
<line x1="382.524139" y1="256.155579" x2="381.765717" y2="243.091125" stroke="red" stroke-width="1" />
<line x1="381.765717" y1="243.091125" x2="459.854828" y2="253.205429" stroke="red" stroke-width="1" />
<line x1="459.854828" y1="253.205429" x2="466.812042" y2="262.086945" stroke="red" stroke-width="1" />
<line x1="466.812042" y1="262.086945" x2="478.691681" y2="311.749847" stroke="red" stroke-width="1" />
<line x1="478.691681" y1="311.749847" x2="444.595367" y2="322.551086" stroke="red" stroke-width="1" />
<circle cx="400.406067" cy="258.745514" r="11.293933" stroke="blue" stroke-width="1" fill="yellow" fill-opacity="0.4" />
<circle cx="176.243988" cy="412.999756" r="2" stroke="brown" stroke-width="0" fill="brown" />
<line x1="191.723328" y1="494.235779" x2="50.060532" y2="426.778412" stroke="red" stroke-width="1" />
<line x1="50.060532" y1="426.778412" x2="164.251740" y2="376.590393" stroke="red" stroke-width="1" />
<line x1="164.251740" y1="376.590393" x2="225.650848" y2="391.270111" stroke="red" stroke-width="1" />
<line x1="225.650848" y1="391.270111" x2="237.318344" y2="418.398834" stroke="red" stroke-width="1" />
<line x1="237.318344" y1="418.398834" x2="210.765732" y2="473.743347" stroke="red" stroke-width="1" />
<line x1="210.765732" y1="473.743347" x2="194.898331" y2="492.854553" stroke="red" stroke-width="1" />
<line x1="194.898331" y1="492.854553" x2="191.723328" y2="494.235779" stroke="red" stroke-width="1" />
<circle cx="176.243988" cy="412.999756" r="32.622734" stroke="blue" stroke-width="1" fill="yellow" fill-opacity="0.4" />
<circle cx="519.917725" cy="520.584778" r="2" stroke="brown" stroke-width="0" fill="brown" />
<line x1="572.192932" y1="700.000000" x2="480.214111" y2="499.558350" stroke="red" stroke-width="1" />
<line x1="480.214111" y1="499.558350" x2="503.156769" y2="487.881165" stroke="red" stroke-width="1" />
<line x1="503.156769" y1="487.881165" x2="546.488892" y2="516.843689" stroke="red" stroke-width="1" />
<line x1="546.488892" y1="516.843689" x2="681.257202" y2="700.000000" stroke="red" stroke-width="1" />
<line x1="681.257202" y1="700.000000" x2="572.192932" y2="700.000000" stroke="red" stroke-width="1" />
<circle cx="519.917725" cy="520.584778" r="17.875607" stroke="blue" stroke-width="1" fill="yellow" fill-opacity="0.4" />
<circle cx="524.517883" cy="229.057281" r="2" stroke="brown" stroke-width="0" fill="brown" />
<line x1="603.166138" y1="284.298401" x2="478.706177" y2="311.756561" stroke="red" stroke-width="1" />
<line x1="478.706177" y1="311.756561" x2="478.691681" y2="311.749847" stroke="red" stroke-width="1" />
<line x1="478.691681" y1="311.749847" x2="466.812042" y2="262.086945" stroke="red" stroke-width="1" />
<line x1="466.812042" y1="262.086945" x2="514.207153" y2="195.870972" stroke="red" stroke-width="1" />
<line x1="514.207153" y1="195.870972" x2="603.166138" y2="284.298401" stroke="red" stroke-width="1" />
<circle cx="524.517883" cy="229.057281" r="16.267574" stroke="blue" stroke-width="1" fill="yellow" fill-opacity="0.4" />
<circle cx="276.821686" cy="496.506165" r="2" stroke="brown" stroke-width="0" fill="brown" />
<line x1="308.157715" y1="515.529663" x2="250.887634" y2="524.325500" stroke="red" stroke-width="1" />
<line x1="250.887634" y1="524.325500" x2="194.898331" y2="492.854553" stroke="red" stroke-width="1" />
<line x1="194.898331" y1="492.854553" x2="210.765732" y2="473.743347" stroke="red" stroke-width="1" />
<line x1="210.765732" y1="473.743347" x2="266.676178" y2="478.578278" stroke="red" stroke-width="1" />
<line x1="266.676178" y1="478.578278" x2="308.157715" y2="515.529663" stroke="red" stroke-width="1" />
<circle cx="276.821686" cy="496.506165" r="6.638457" stroke="blue" stroke-width="1" fill="yellow" fill-opacity="0.4" />
<circle cx="403.779236" cy="232.702347" r="2" stroke="brown" stroke-width="0" fill="brown" />
<line x1="459.854828" y1="253.205429" x2="381.765717" y2="243.091125" stroke="red" stroke-width="1" />
<line x1="381.765717" y1="243.091125" x2="360.107788" y2="213.244781" stroke="red" stroke-width="1" />
<line x1="360.107788" y1="213.244781" x2="362.463348" y2="181.911209" stroke="red" stroke-width="1" />
<line x1="362.463348" y1="181.911209" x2="411.460022" y2="151.143112" stroke="red" stroke-width="1" />
<line x1="411.460022" y1="151.143112" x2="459.854828" y2="253.205429" stroke="red" stroke-width="1" />
<circle cx="403.779236" cy="232.702347" r="13.130357" stroke="blue" stroke-width="1" fill="yellow" fill-opacity="0.4" />
<circle cx="285.652924" cy="486.592255" r="2" stroke="brown" stroke-width="0" fill="brown" />
<line x1="308.157715" y1="515.529663" x2="266.676178" y2="478.578278" stroke="red" stroke-width="1" />
<line x1="266.676178" y1="478.578278" x2="305.932678" y2="468.894257" stroke="red" stroke-width="1" />
<line x1="305.932678" y1="468.894257" x2="326.446228" y2="516.072998" stroke="red" stroke-width="1" />
<line x1="326.446228" y1="516.072998" x2="308.157715" y2="515.529663" stroke="red" stroke-width="1" />
<circle cx="285.652924" cy="486.592255" r="6.638457" stroke="blue" stroke-width="1" fill="yellow" fill-opacity="0.4" />
<circle cx="479.468811" cy="196.812698" r="2" stroke="brown" stroke-width="0" fill="brown" />
<line x1="514.207153" y1="195.870972" x2="466.812042" y2="262.086945" stroke="red" stroke-width="1" />
<line x1="466.812042" y1="262.086945" x2="459.854828" y2="253.205429" stroke="red" stroke-width="1" />
<line x1="459.854828" y1="253.205429" x2="411.460022" y2="151.143112" stroke="red" stroke-width="1" />
<line x1="411.460022" y1="151.143112" x2="488.883484" y2="0.000000" stroke="red" stroke-width="1" />
<line x1="488.883484" y1="0.000000" x2="540.626221" y2="0.000000" stroke="red" stroke-width="1" />
<line x1="540.626221" y1="0.000000" x2="514.207153" y2="195.870972" stroke="red" stroke-width="1" />
<circle cx="479.468811" cy="196.812698" r="27.699865" stroke="blue" stroke-width="1" fill="yellow" fill-opacity="0.4" />
<circle cx="565.881836" cy="388.723022" r="2" stroke="brown" stroke-width="0" fill="brown" />
<line x1="633.237854" y1="446.091095" x2="526.971680" y2="397.395813" stroke="red" stroke-width="1" />
<line x1="526.971680" y1="397.395813" x2="526.348938" y2="395.513031" stroke="red" stroke-width="1" />
<line x1="526.348938" y1="395.513031" x2="700.000000" y2="306.965485" stroke="red" stroke-width="1" />
<line x1="700.000000" y1="306.965485" x2="700.000000" y2="451.179382" stroke="red" stroke-width="1" />
<line x1="700.000000" y1="451.179382" x2="633.237854" y2="446.091095" stroke="red" stroke-width="1" />
<circle cx="565.881836" cy="388.723022" r="11.909454" stroke="blue" stroke-width="1" fill="yellow" fill-opacity="0.4" />
<circle cx="128.084183" cy="585.052307" r="2" stroke="brown" stroke-width="0" fill="brown" />
<line x1="0.000000" y1="581.205444" x2="179.269394" y2="549.316040" stroke="red" stroke-width="1" />
<line x1="179.269394" y1="549.316040" x2="211.558365" y2="700.000000" stroke="red" stroke-width="1" />
<line x1="211.558365" y1="700.000000" x2="0.000000" y2="700.000000" stroke="red" stroke-width="1" />
<line x1="0.000000" y1="700.000000" x2="0.000000" y2="581.205444" stroke="red" stroke-width="1" />
<circle cx="128.084183" cy="585.052307" r="26.219563" stroke="blue" stroke-width="1" fill="yellow" fill-opacity="0.4" />
<circle cx="547.454651" cy="205.982620" r="2" stroke="brown" stroke-width="0" fill="brown" />
<line x1="603.166138" y1="284.298401" x2="514.207153" y2="195.870972" stroke="red" stroke-width="1" />
<line x1="514.207153" y1="195.870972" x2="540.626221" y2="0.000000" stroke="red" stroke-width="1" />
<line x1="540.626221" y1="0.000000" x2="700.000000" y2="0.000000" stroke="red" stroke-width="1" />
<line x1="700.000000" y1="0.000000" x2="700.000000" y2="279.737946" stroke="red" stroke-width="1" />
<line x1="700.000000" y1="279.737946" x2="603.166138" y2="284.298401" stroke="red" stroke-width="1" />
<circle cx="547.454651" cy="205.982620" r="16.267618" stroke="blue" stroke-width="1" fill="yellow" fill-opacity="0.4" />
<circle cx="191.415710" cy="349.542786" r="2" stroke="brown" stroke-width="0" fill="brown" />
<line x1="225.650848" y1="391.270111" x2="164.251740" y2="376.590393" stroke="red" stroke-width="1" />
<line x1="164.251740" y1="376.590393" x2="168.731308" y2="344.516937" stroke="red" stroke-width="1" />
<line x1="168.731308" y1="344.516937" x2="182.760025" y2="328.136993" stroke="red" stroke-width="1" />
<line x1="182.760025" y1="328.136993" x2="233.307144" y2="360.367371" stroke="red" stroke-width="1" />
<line x1="233.307144" y1="360.367371" x2="225.650848" y2="391.270111" stroke="red" stroke-width="1" />
<circle cx="191.415710" cy="349.542786" r="13.395283" stroke="blue" stroke-width="1" fill="yellow" fill-opacity="0.4" />
<circle cx="470.263519" cy="543.370178" r="2" stroke="brown" stroke-width="0" fill="brown" />
<line x1="476.580627" y1="700.000000" x2="440.622803" y2="560.850281" stroke="red" stroke-width="1" />
<line x1="440.622803" y1="560.850281" x2="471.602814" y2="497.966888" stroke="red" stroke-width="1" />
<line x1="471.602814" y1="497.966888" x2="480.214111" y2="499.558350" stroke="red" stroke-width="1" />
<line x1="480.214111" y1="499.558350" x2="572.192932" y2="700.000000" stroke="red" stroke-width="1" />
<line x1="572.192932" y1="700.000000" x2="476.580627" y2="700.000000" stroke="red" stroke-width="1" />
<circle cx="470.263519" cy="543.370178" r="18.863998" stroke="blue" stroke-width="1" fill="yellow" fill-opacity="0.4" />
<circle cx="293.509308" cy="360.108521" r="2" stroke="brown" stroke-width="0" fill="brown" />
<line x1="311.825348" y1="413.594971" x2="258.682617" y2="319.678833" stroke="red" stroke-width="1" />
<line x1="258.682617" y1="319.678833" x2="268.450806" y2="293.843353" stroke="red" stroke-width="1" />
<line x1="268.450806" y1="293.843353" x2="352.038513" y2="363.604858" stroke="red" stroke-width="1" />
<line x1="352.038513" y1="363.604858" x2="356.977692" y2="368.613129" stroke="red" stroke-width="1" />
<line x1="356.977692" y1="368.613129" x2="320.209412" y2="410.495361" stroke="red" stroke-width="1" />
<line x1="320.209412" y1="410.495361" x2="311.825348" y2="413.594971" stroke="red" stroke-width="1" />
<circle cx="293.509308" cy="360.108521" r="10.399899" stroke="blue" stroke-width="1" fill="yellow" fill-opacity="0.4" />
<circle cx="334.660583" cy="122.634323" r="2" stroke="brown" stroke-width="0" fill="brown" />
<line x1="342.047607" y1="177.832321" x2="327.128082" y2="166.298126" stroke="red" stroke-width="1" />
<line x1="327.128082" y1="166.298126" x2="283.513275" y2="0.000000" stroke="red" stroke-width="1" />
<line x1="283.513275" y1="0.000000" x2="488.883484" y2="0.000000" stroke="red" stroke-width="1" />
<line x1="488.883484" y1="0.000000" x2="411.460022" y2="151.143112" stroke="red" stroke-width="1" />
<line x1="411.460022" y1="151.143112" x2="362.463348" y2="181.911209" stroke="red" stroke-width="1" />
<line x1="362.463348" y1="181.911209" x2="342.047607" y2="177.832321" stroke="red" stroke-width="1" />
<circle cx="334.660583" cy="122.634323" r="18.363119" stroke="blue" stroke-width="1" fill="yellow" fill-opacity="0.4" />
</svg>
